<?xml version="1.0" encoding="utf-8"?>
<!-- Generator: Adobe Illustrator 26.0.2, SVG Export Plug-In . SVG Version: 6.00 Build 0)  -->
<svg version="1.1" baseProfile="basic" id="Ebene_1"
	 xmlns="http://www.w3.org/2000/svg" xmlns:xlink="http://www.w3.org/1999/xlink" x="0px" y="0px" viewBox="0 0 20 20"
	 xml:space="preserve" width="20" height="20">
<path fill="none" stroke="#000000" stroke-width="1.5" stroke-linecap="round" stroke-miterlimit="10" d="M3.418,14.844
	c0.046-0.171-0.056-0.409-0.154-0.58c-0.031-0.051-0.064-0.101-0.099-0.148c-0.841-1.275-1.289-2.769-1.289-4.297
	C1.861,5.433,5.497,1.875,9.993,1.875c3.921,0,7.194,2.716,7.959,6.322c0.115,0.535,0.172,1.08,0.173,1.627
	c0,4.391-3.496,8.005-7.992,8.005c-0.715,0-1.68-0.18-2.206-0.327c-0.526-0.147-1.052-0.343-1.187-0.395
	c-0.139-0.053-0.286-0.081-0.434-0.081c-0.162-0.001-0.323,0.032-0.472,0.095l-2.65,0.956c-0.058,0.025-0.12,0.041-0.182,0.048
	c-0.05,0-0.099-0.01-0.144-0.029c-0.046-0.019-0.087-0.047-0.122-0.083s-0.062-0.077-0.081-0.123
	c-0.018-0.046-0.028-0.095-0.027-0.145c0.003-0.044,0.011-0.087,0.023-0.128L3.418,14.844z"/>
<path fill="none" stroke="#000000" stroke-width="1.5" stroke-linecap="round" stroke-linejoin="round" stroke-miterlimit="10" d="
	M13.712,10.381l-3.716,3.716l-3.708-3.716c-1.025-1.025-1.025-2.683,0-3.708s2.683-1.025,3.708,0h0.008
	c1.025-1.025,2.683-1.025,3.708,0S14.736,9.356,13.712,10.381z"/>
</svg>
