<svg width="20" height="20" viewBox="0 0 20 20" fill="none" xmlns="http://www.w3.org/2000/svg">
<path d="M19.9,5.9c0-1.1-0.2-1.8-0.5-2.4c-0.3-0.7-0.6-1.3-1.2-1.8c-0.5-0.5-1.1-0.9-1.8-1.2c-0.6-0.3-1.4-0.4-2.4-0.5S12.7,0,10,0
	S6.9,0,5.9,0.1S4.1,0.3,3.5,0.5C2.8,0.8,2.2,1.2,1.7,1.7C1.2,2.2,0.8,2.8,0.5,3.5C0.3,4.1,0.1,4.8,0.1,5.9S0,7.3,0,10s0,3.1,0.1,4.1
	c0,1.1,0.2,1.8,0.5,2.4c0.3,0.7,0.6,1.3,1.2,1.8c0.5,0.5,1.1,0.9,1.8,1.2c0.6,0.3,1.4,0.4,2.4,0.5C6.9,20,7.3,20,10,20
	s3.1,0,4.1-0.1c1.1,0,1.8-0.2,2.4-0.5c1.3-0.5,2.4-1.6,2.9-2.9c0.3-0.6,0.4-1.4,0.5-2.4S20,12.7,20,10S20,6.9,19.9,5.9z M18.1,14
	c0,1-0.2,1.5-0.3,1.9c-0.3,0.9-1,1.6-1.9,1.9c-0.3,0.1-0.9,0.3-1.9,0.3c-1.1,0-1.4,0.1-4,0.1s-3,0-4-0.1c-1,0-1.5-0.2-1.9-0.3
	C3.7,17.6,3.3,17.4,3,17c-0.3-0.3-0.6-0.7-0.7-1.2C2.1,15.5,1.9,15,1.9,14c0-1.1-0.1-1.4-0.1-4c0-2.7,0-3,0.1-4c0-1,0.2-1.5,0.3-1.9
	C2.4,3.7,2.6,3.3,3,3c0.3-0.3,0.7-0.6,1.2-0.7C4.5,2.1,5,1.9,6,1.9c1.1,0,1.4-0.1,4-0.1c2.7,0,3,0,4,0.1c1,0,1.5,0.2,1.9,0.3
	C16.3,2.4,16.7,2.6,17,3c0.3,0.3,0.6,0.7,0.7,1.2C17.9,4.5,18.1,5,18.1,6c0,1.1,0.1,1.4,0.1,4C18.2,12.7,18.2,13,18.1,14z" fill="black"/>
<circle cx="15.3" cy="4.7" r="1.2" fill="black"/>
<path d="M10,4.9c-2.8,0-5.1,2.3-5.1,5.1s2.3,5.1,5.1,5.1c2.8,0,5.1-2.3,5.1-5.1S12.8,4.9,10,4.9z M10,13.3c-1.8,0-3.3-1.5-3.3-3.3
	c0-1.8,1.5-3.3,3.3-3.3s3.3,1.5,3.3,3.3C13.3,11.8,11.8,13.3,10,13.3z" fill="black"/>
</svg>
