<svg width="20" height="20" viewBox="0 0 20 20" fill="none" xmlns="http://www.w3.org/2000/svg">
<g>
	<g>
		<path d="M11.4,20H8.1c-0.4,0-0.7-0.3-0.7-0.7v-8.2h-2c-0.4,0-0.7-0.3-0.7-0.7V7.2c0-0.4,0.3-0.7,0.7-0.7h2V4.9
			c0-1.5,0.5-2.8,1.3-3.6c0.8-0.8,2-1.3,3.4-1.3c1.3,0,2.3,0.1,2.5,0.1c0.4,0,0.6,0.4,0.6,0.7v2.8c0,0.4-0.3,0.7-0.7,0.7h-1.7
			c-0.5,0-0.7,0.1-0.7,0.2c-0.1,0.1-0.1,0.3-0.1,0.7v1.3h2.4c0.2,0,0.4,0.1,0.5,0.2c0.1,0.2,0.2,0.4,0.2,0.6l-0.4,3.2
			c0,0.4-0.4,0.6-0.7,0.6h-2v8.2C12.1,19.7,11.8,20,11.4,20z M8.8,18.6h1.8v-8.2c0-0.4,0.3-0.7,0.7-0.7h2.1L13.7,8h-2.3
			c-0.4,0-0.7-0.3-0.7-0.7v-2c0-0.5,0.1-1.2,0.6-1.7c0.4-0.4,1-0.6,1.7-0.6h0.9V1.5c-0.4,0-1.1-0.1-1.7-0.1c-2.1,0-3.3,1.3-3.3,3.5
			v2.3C8.8,7.6,8.5,8,8.1,8h-2v1.7h2c0.4,0,0.7,0.3,0.7,0.7V18.6z" fill="black"/>
	</g>
</g>
</svg>
