<svg width="20" height="20" viewBox="0 0 20 20" fill="none" xmlns="http://www.w3.org/2000/svg">
<g>
	<g>
		<path d="M4.9,19.6h-4c-0.4,0-0.7-0.3-0.7-0.7V6.9c0-0.4,0.3-0.7,0.7-0.7h4c0.4,0,0.7,0.3,0.7,0.7v12.1C5.6,19.3,5.3,19.6,4.9,19.6
			z M1.5,18.3h2.7V7.5H1.5V18.3z" fill="black"/>
	</g>
	<g>
		<path d="M2.9,5.9L2.9,5.9C1.2,5.9,0,4.7,0,3.2c0-1.6,1.2-2.7,2.9-2.7c1.7,0,2.9,1.1,2.9,2.7c0,0,0,0,0,0C5.8,4.7,4.6,5.9,2.9,5.9z
			 M2.9,1.7c-1,0-1.6,0.6-1.6,1.4C1.3,4,2,4.6,2.9,4.6h0c1,0,1.6-0.6,1.6-1.4C4.5,2.3,3.9,1.7,2.9,1.7z" fill="black"/>
	</g>
	<g>
		<path d="M19.3,19.6h-4c-0.4,0-0.7-0.3-0.7-0.7v-6.5c0-2.1-1-2.1-1.4-2.1c-0.9,0-1.3,0.7-1.4,1.1c0,0.1-0.1,0.3-0.1,0.7v6.7
			c0,0.4-0.3,0.7-0.7,0.7h-4c-0.2,0-0.3-0.1-0.5-0.2c-0.1-0.1-0.2-0.3-0.2-0.5c0-0.1,0.1-10.9,0-12c0-0.2,0.1-0.4,0.2-0.5
			c0.1-0.1,0.3-0.2,0.5-0.2h4c0.4,0,0.7,0.3,0.7,0.6c0.7-0.5,1.6-0.9,2.9-0.9c1.5,0,2.9,0.5,3.8,1.5c1,1.1,1.5,2.6,1.5,4.5v6.9
			C20,19.3,19.7,19.6,19.3,19.6z M16,18.3h2.7V12c0-3-1.4-4.8-4-4.8c-1.7,0-2.5,0.9-3.1,1.7c-0.2,0.2-0.5,0.4-0.7,0.3
			c-0.3-0.1-0.5-0.3-0.5-0.6v-1H7.8c0,2.2,0,8.6,0,10.7h2.7v-6.1c0-0.5,0.1-0.9,0.2-1.2c0.5-1.2,1.5-1.9,2.7-1.9
			c1.7,0,2.7,1.2,2.7,3.4V18.3z" fill="black"/>
	</g>
</g>
</svg>
