<svg width="20" height="20" viewBox="0 0 20 20" fill="none" xmlns="http://www.w3.org/2000/svg">
<g>
	<path d="M9.8,17.2c-1.7,0-3.3,0-4.9-0.1c-0.5,0-1.2-0.1-2-0.2c-1.4-0.2-2.3-1.2-2.6-2.6C0.1,13.2,0,12,0,11c0-1.6,0-3.1,0.2-4.5
		c0-0.4,0.1-0.7,0.2-1C0.7,4.1,1.8,3.2,3.2,3C5,2.8,6.7,2.8,8.5,2.8l0.4,0c0.3,0,0.5,0,0.8,0c0.1,0,0.2,0,0.3,0c1.8,0,3.8,0,5.7,0.2
		c0.5,0,0.9,0.1,1.4,0.2c1.4,0.3,2.3,1.2,2.6,2.7C20,7.5,20,9.2,20,10.6c0,1.3-0.1,2.4-0.3,3.4c-0.2,1.1-0.7,2-1.5,2.5
		c-0.6,0.4-1.2,0.5-1.8,0.5c-2,0.2-4,0.2-5.8,0.2C10.4,17.2,10.1,17.2,9.8,17.2z M9.3,4.4c-0.1,0-0.3,0-0.4,0l-0.4,0
		c-1.7,0-3.4,0.1-5.1,0.3C2.7,4.8,2.1,5.2,2,5.8C1.9,6.1,1.9,6.3,1.8,6.6C1.7,8,1.6,9.4,1.6,10.9c0,1,0.1,2.1,0.3,3.1
		c0.1,0.7,0.6,1.2,1.3,1.3c0.6,0.1,1.3,0.2,1.8,0.2c1.8,0.1,3.7,0.1,5.7,0.1c1.8,0,3.7,0,5.7-0.2c0.4,0,0.8-0.1,1-0.3
		c0.4-0.3,0.6-0.7,0.7-1.4c0.1-0.9,0.2-1.9,0.2-3.2c0-1.3,0-2.9-0.3-4.5l0,0c-0.1-0.8-0.6-1.2-1.3-1.4c-0.4-0.1-0.8-0.1-1.2-0.1
		c-1.9-0.1-3.8-0.2-5.6-0.2c-0.1,0-0.2,0-0.4,0C9.5,4.4,9.4,4.4,9.3,4.4z M8.2,13.6c-0.1,0-0.3,0-0.4-0.1c-0.2-0.1-0.4-0.4-0.4-0.7
		V7.3c0-0.3,0.2-0.6,0.4-0.7c0.2-0.1,0.6-0.1,0.8,0l4.8,2.8c0.2,0.1,0.4,0.4,0.4,0.7c0,0.3-0.2,0.6-0.4,0.7l-4.8,2.8
		C8.5,13.5,8.3,13.6,8.2,13.6z M9,8.7v2.7l2.3-1.3L9,8.7z" fill="black"/>
</g>
</svg>
