<svg width="20" height="20" viewBox="0 0 20 20" fill="none" xmlns="http://www.w3.org/2000/svg">
<path d="M13.3,3.1c0.9,0,1.7,0.3,2.4,1c0.1,0.1,0.1,0.1,0.2,0.1c0,0,0,0,0.1,0C16.7,4,17.3,3.7,18,3.3c-0.3,0.8-0.8,1.4-1.4,1.9
	c0.7-0.1,1.3-0.3,1.9-0.5C18,5.4,17.6,5.9,17,6.4c-0.2,0.1-0.2,0.2-0.2,0.4c0,1.6-0.3,3.1-1,4.6c-0.8,1.7-2,3.1-3.7,4.1
	c-1.2,0.7-2.4,1.2-3.8,1.3c-0.5,0.1-0.9,0.1-1.4,0.1c-0.7,0-1.4-0.1-2.1-0.2c-1.1-0.2-2.2-0.7-3.1-1.3c0,0,0,0-0.1-0.1
	c0.3,0,0.5,0,0.8,0c1.6,0,3-0.5,4.4-1.5C5,13.8,4,13,3.4,11.5c0.2,0,0.4,0,0.7,0c0.3,0,0.6,0,0.9-0.1c-0.8-0.2-1.5-0.6-2-1.3
	C2.4,9.5,2.2,8.8,2.2,8c0.5,0.2,1,0.4,1.5,0.4c-1.5-1.3-1.9-2.8-1-4.7C4.6,6,6.9,7.2,9.8,7.4c0-0.3,0-0.7,0-1c0-1.4,1.1-2.8,2.5-3.2
	C12.7,3.1,13,3.1,13.3,3.1 M13.3,1.6c-0.4,0-0.9,0.1-1.4,0.2C11,2,10.1,2.6,9.4,3.4c-0.5,0.6-0.9,1.4-1,2.2C6.6,5.2,5.1,4.2,3.8,2.7
	C3.5,2.4,3.1,2.2,2.7,2.2c-0.1,0-0.1,0-0.2,0c-0.5,0.1-1,0.4-1.2,0.9C0.7,4.3,0.6,5.5,0.8,6.6c0,0.2,0.1,0.3,0.1,0.5
	C0.8,7.3,0.7,7.6,0.7,7.9c0,1.2,0.4,2.2,1.1,3.1c0,0,0,0,0,0c0,0.1,0.1,0.1,0.1,0.2c0,0.3,0,0.5,0.1,0.8c0.3,0.7,0.6,1.3,1.1,1.8
	c-0.3,0-0.5,0.1-0.8,0.1c-0.2,0-0.4,0-0.6,0c0,0-0.1,0-0.1,0c-0.6,0-1.2,0.4-1.4,1c-0.2,0.6,0,1.3,0.5,1.7c0,0,0,0,0,0
	c0,0,0.1,0.1,0.2,0.1c1.1,0.7,2.3,1.2,3.6,1.4c0.8,0.2,1.6,0.3,2.5,0.3c0.5,0,1.1,0,1.6-0.1c0,0,0,0,0,0c1.6-0.2,3.1-0.7,4.4-1.5
	c1.8-1.1,3.3-2.7,4.2-4.8l0,0c0.7-1.5,1.1-3.1,1.2-4.8c0.5-0.5,1-1,1.5-1.7c0.4-0.5,0.3-1.3-0.1-1.8c-0.1-0.1-0.1-0.1-0.2-0.2
	c0.1-0.5-0.1-1.1-0.5-1.4c-0.3-0.2-0.6-0.3-1-0.3c-0.3,0-0.5,0.1-0.8,0.2c-0.4,0.2-0.7,0.4-1.1,0.5C15.3,1.9,14.4,1.6,13.3,1.6
	L13.3,1.6z" fill="black"/>
</svg>
